{
    "asset" : {
        "generator" : "Khronos glTF Blender I/O v1.5.17",
        "version" : "2.0"
    },
    "scene" : 0,
    "scenes" : [
        {
            "name" : "Scene",
            "nodes" : [
                0,
                1,
                2
            ]
        }
    ],
    "nodes" : [
        {
            "mesh" : 0,
            "name" : "Chair"
        },
        {
            "mesh" : 1,
            "name" : "Cushion",
            "translation" : [
                0,
                0.06415151059627533,
                0.04495773836970329
            ]
        },
        {
            "mesh" : 2,
            "name" : "Legs2"
        }
    ],
    "materials" : [
        {
            "doubleSided" : true,
            "name" : "Chair",
            "pbrMetallicRoughness" : {
                "baseColorFactor" : [
                    0,
                    0,
                    0,
                    1
                ],
                "metallicFactor" : 0,
                "roughnessFactor" : 0.8932384252548218
            }
        },
        {
            "doubleSided" : true,
            "name" : "Cushion",
            "pbrMetallicRoughness" : {
                "baseColorFactor" : [
                    0.9849011898040771,
                    0.969936192035675,
                    1,
                    1
                ],
                "metallicFactor" : 0,
                "roughnessFactor" : 0.8558719158172607
            }
        },
        {
            "doubleSided" : true,
            "name" : "Legs",
            "pbrMetallicRoughness" : {
                "baseColorFactor" : [
                    0.009954840876162052,
                    0.008822723291814327,
                    0.010547232814133167,
                    1
                ],
                "metallicFactor" : 0,
                "roughnessFactor" : 0.12277579307556152
            }
        }
    ],
    "meshes" : [
        {
            "name" : "Plane",
            "primitives" : [
                {
                    "attributes" : {
                        "POSITION" : 0,
                        "NORMAL" : 1,
                        "TEXCOORD_0" : 2
                    },
                    "indices" : 3,
                    "material" : 0
                }
            ]
        },
        {
            "name" : "Plane.001",
            "primitives" : [
                {
                    "attributes" : {
                        "POSITION" : 4,
                        "NORMAL" : 5,
                        "TEXCOORD_0" : 6
                    },
                    "indices" : 7,
                    "material" : 1
                }
            ]
        },
        {
            "name" : "Plane.003",
            "primitives" : [
                {
                    "attributes" : {
                        "POSITION" : 8,
                        "NORMAL" : 9,
                        "TEXCOORD_0" : 10
                    },
                    "indices" : 11,
                    "material" : 2
                }
            ]
        }
    ],
    "accessors" : [
        {
            "bufferView" : 0,
            "componentType" : 5126,
            "count" : 1814,
            "max" : [
                1.102556824684143,
                3.0652527809143066,
                1
            ],
            "min" : [
                -1.0927417278289795,
                0.6014844179153442,
                -1
            ],
            "type" : "VEC3"
        },
        {
            "bufferView" : 1,
            "componentType" : 5126,
            "count" : 1814,
            "type" : "VEC3"
        },
        {
            "bufferView" : 2,
            "componentType" : 5126,
            "count" : 1814,
            "type" : "VEC2"
        },
        {
            "bufferView" : 3,
            "componentType" : 5123,
            "count" : 2760,
            "type" : "SCALAR"
        },
        {
            "bufferView" : 4,
            "componentType" : 5126,
            "count" : 729,
            "max" : [
                0.7762526869773865,
                2.8176891803741455,
                1.0542305707931519
            ],
            "min" : [
                -0.7762526869773865,
                1.0212774276733398,
                -0.7896546125411987
            ],
            "type" : "VEC3"
        },
        {
            "bufferView" : 5,
            "componentType" : 5126,
            "count" : 729,
            "type" : "VEC3"
        },
        {
            "bufferView" : 6,
            "componentType" : 5126,
            "count" : 729,
            "type" : "VEC2"
        },
        {
            "bufferView" : 7,
            "componentType" : 5123,
            "count" : 828,
            "type" : "SCALAR"
        },
        {
            "bufferView" : 8,
            "componentType" : 5126,
            "count" : 88,
            "max" : [
                0.8669954538345337,
                0.6014844179153442,
                0.8221668004989624
            ],
            "min" : [
                -0.8669954538345337,
                2.0101666450500488e-05,
                -0.9045190811157227
            ],
            "type" : "VEC3"
        },
        {
            "bufferView" : 9,
            "componentType" : 5126,
            "count" : 88,
            "type" : "VEC3"
        },
        {
            "bufferView" : 10,
            "componentType" : 5126,
            "count" : 88,
            "type" : "VEC2"
        },
        {
            "bufferView" : 11,
            "componentType" : 5123,
            "count" : 96,
            "type" : "SCALAR"
        }
    ],
    "bufferViews" : [
        {
            "buffer" : 0,
            "byteLength" : 21768,
            "byteOffset" : 0
        },
        {
            "buffer" : 0,
            "byteLength" : 21768,
            "byteOffset" : 21768
        },
        {
            "buffer" : 0,
            "byteLength" : 14512,
            "byteOffset" : 43536
        },
        {
            "buffer" : 0,
            "byteLength" : 5520,
            "byteOffset" : 58048
        },
        {
            "buffer" : 0,
            "byteLength" : 8748,
            "byteOffset" : 63568
        },
        {
            "buffer" : 0,
            "byteLength" : 8748,
            "byteOffset" : 72316
        },
        {
            "buffer" : 0,
            "byteLength" : 5832,
            "byteOffset" : 81064
        },
        {
            "buffer" : 0,
            "byteLength" : 1656,
            "byteOffset" : 86896
        },
        {
            "buffer" : 0,
            "byteLength" : 1056,
            "byteOffset" : 88552
        },
        {
            "buffer" : 0,
            "byteLength" : 1056,
            "byteOffset" : 89608
        },
        {
            "buffer" : 0,
            "byteLength" : 704,
            "byteOffset" : 90664
        },
        {
            "buffer" : 0,
            "byteLength" : 192,
            "byteOffset" : 91368
        }
    ],
    "buffers" : [
        {
            "byteLength" : 91560,
            "uri" : "data:application/octet-stream;base64,"
        }
    ]
}
